# xmcd
#
# Track frame offsets:
#   150
#   12562
#   27601
#   40124
#   53951
#   70053
#   82893
#   100916
#   114339
#   134925
#   151051
#   167094
#   180996
#   192462
#   208138
#   228831
#   248242
#   261089
#
# Disc length: 3765 seconds
#
# Revision: 0
# Processed by: cddbd v1.5.1PL0 Copyright (c) Steve Scherf et al.
# Submitted via: Media_Universe 3.0
#
DISCID=f60eb312
DTITLE=Garth Brooks - Sevens
DYEAR=1900
DGENRE=Country
TTITLE0=Long Neck Bottle
TTITLE1=How You Ever Gonna Know
TTITLE2=Shes Gonna Make It
TTITLE3=I Dont Have To Wonder
TTITLE4=Two Pina Coladas
TTITLE5=Cowboy Cadillac
TTITLE6=Fit For A King
TTITLE7=Do What You Gotta Do
TTITLE8=You Move
TTITLE9=In Anothers Eyes
TTITLE10=When Theres No One Around
TTITLE11=A Friend To Me
TTITLE12=Take The Keys To My Heart
TTITLE13=Belleau Wood
TTITLE14=When You Come Back To Me
TTITLE15=It's Your Song
TTITLE16=Mama's In The Graveyard, Papa's In The Pen
TTITLE17=The Gift
EXTD=
EXTT0=
EXTT1=
EXTT2=
EXTT3=
EXTT4=
EXTT5=
EXTT6=
EXTT7=
EXTT8=
EXTT9=
EXTT10=
EXTT11=
EXTT12=
EXTT13=
EXTT14=
EXTT15=
EXTT16=
EXTT17=
PLAYORDER=
